<svg width="19" height="18" viewBox="0 0 19 18" fill="none" xmlns="http://www.w3.org/2000/svg">
<path d="M10.7499 8.67241L13.9757 5.81316L3.55648 0.622613C2.86593 0.291919 2.21902 0.245506 1.65175 0.607142L10.7499 8.67241ZM14.5256 12.02L17.879 10.3481C18.5336 10.0232 18.8925 9.56296 18.8925 9.05241C18.8925 8.54284 18.5336 8.0816 17.8801 7.75671L14.8441 6.24538L11.4263 9.27384L14.5256 12.02ZM1.09102 1.31011C1.02121 1.5006 0.981934 1.71332 0.981934 1.94636V16.1652C0.981934 16.5336 1.07357 16.8508 1.23939 17.1032L10.0725 9.27288L1.09102 1.31011ZM10.7499 9.87238L1.96593 17.6592C2.13393 17.7162 2.31502 17.7462 2.50593 17.7462C2.8463 17.7462 3.20084 17.6572 3.56193 17.4793L13.6583 12.4541L10.7499 9.87238Z" fill="white"/>
</svg>
