<svg width="20" height="20" viewBox="0 0 20 20" fill="none" xmlns="http://www.w3.org/2000/svg">
<path d="M9.93939 19.8788C4.44987 19.8788 0 15.4289 0 9.93939C0 4.44987 4.44987 0 9.93939 0C15.4289 0 19.8788 4.44987 19.8788 9.93939C19.8728 15.4259 15.4259 19.8728 9.93939 19.8788ZM5.69229 12.7095C5.56407 12.7095 5.43685 12.7254 5.31161 12.7552L5.16252 12.796L4.57212 13.8068C4.46428 13.9867 4.42965 14.2011 4.47539 14.4058C4.52113 14.6105 4.64374 14.7898 4.81789 14.9067C4.99205 15.0235 5.20444 15.069 5.41119 15.0338C5.61794 14.9985 5.80326 14.8852 5.92885 14.7173L5.99047 14.6248L6.77568 13.2621C6.64842 13.0919 6.4835 12.9535 6.29383 12.8576C6.10415 12.7617 5.89487 12.711 5.68235 12.7095H5.69229ZM11.1431 6.61964C10.8338 6.91014 10.6288 7.29435 10.5596 7.71297C10.4488 8.29018 10.555 8.88799 10.8578 9.39173L13.8794 14.6258C13.9845 14.8027 14.1522 14.9338 14.3493 14.9931C14.5464 15.0523 14.7586 15.0355 14.9439 14.9459C15.1286 14.8547 15.2722 14.6973 15.3459 14.5049C15.4196 14.3125 15.418 14.0994 15.3415 13.9082L15.2927 13.8088L14.4976 12.4262H15.6804C15.8875 12.4245 16.0863 12.3442 16.2366 12.2017C16.3868 12.0591 16.4774 11.8648 16.49 11.6581C16.5026 11.4513 16.4363 11.2475 16.3045 11.0877C16.1727 10.9279 15.9852 10.8241 15.7798 10.7972L15.6804 10.7912H13.5534L11.3727 7.01423L11.145 6.61665L11.1431 6.61964ZM4.23418 10.7842C4.12737 10.7845 4.02167 10.8058 3.92311 10.847C3.82456 10.8882 3.7351 10.9484 3.65985 11.0242C3.58461 11.1 3.52505 11.1899 3.4846 11.2887C3.44415 11.3876 3.4236 11.4935 3.42412 11.6003C3.42412 12.0118 3.73025 12.3596 4.13876 12.4123L4.23816 12.4173H11.6728C11.7551 12.2521 11.7965 12.0695 11.7936 11.885C11.7906 11.7004 11.7434 11.5193 11.6559 11.3567C11.5815 11.2045 11.4706 11.073 11.3331 10.974C11.1956 10.875 11.0357 10.8115 10.8677 10.7892L10.7475 10.7832H8.21193L11.7185 4.71127C11.8266 4.52305 11.8558 4.29978 11.8 4.09006C11.7603 3.94289 11.6804 3.80971 11.5691 3.70553C11.4578 3.60134 11.3197 3.53027 11.1702 3.50031C11.0208 3.47036 10.8659 3.48271 10.7231 3.53598C10.5803 3.58924 10.4552 3.68131 10.3618 3.80182L10.3002 3.89326L9.93939 4.52342L9.58257 3.89326C9.4774 3.71608 9.30952 3.58486 9.11219 3.52558C8.91486 3.46631 8.70246 3.48331 8.51707 3.57321C8.3324 3.6647 8.18895 3.82237 8.11528 4.01484C8.04161 4.20731 8.04311 4.42047 8.11949 4.61188L8.16819 4.71127L8.99316 6.16242L6.32444 10.7842H4.23418Z" fill="white"/>
</svg>
